# xmcd CD database file
# Copyright (C) 1997 Ti Kan
#
# Track frame offsets:
#  183
#  12368
#  24600
#  39683
#  52785
#  63255
#  79708
#  91690
#  104908
#  118483
#  129178
#  142748
#  156023
#  171928
#  186383
#  202273
#  221698
#  239198
#  256818
#  275323
#  289110
#  303900
#  321708
#  333633
#  342208
#
# Disc length: 4769 seconds
#
# Revision: 1
# Processed by: cddbd v1.4b41PL1 Copyright (c) Steve Scherf et al.
# Submitted via: CDWizzard Release:4.24
#
DISCID=7d129f19
DTITLE=Shaver, Billy Joe - Honky Tonk Heroes
DYEAR=1900
DGENRE=
TTITLE0=Texas Uphere Tennessee
TTITLE1=The Good Lord Knows I Tried
TTITLE2=Ride Me Down Easy
TTITLE3=When I Get My Wings
TTITLE4=Ain't No God in Mexico
TTITLE5=Love You Till the Cows Come Home
TTITLE6=Woman is the Wonder of the World
TTITLE7=When the Word Was Thunderbird
TTITLE8=America You Are My Woman
TTITLE9=A Restless Wind
TTITLE10=Evergreen
TTITLE11=Billy B. Damned
TTITLE12=We Stayed Too Long at the Fair
TTITLE13=Honky Tonk Heroes
TTITLE14=I'm Going Crazy in 3/4 Time
TTITLE15=Gypsy Boy
TTITLE16=Chicken on the Ground
TTITLE17=Everything, Everywhere's
TTITLE18=Slow Rollin' Low
TTITLE19=Silver Wings of Time
TTITLE20=The Believer
TTITLE21=You Ask Me To
TTITLE22=Lately I've Been Leaning Towards the Blues
TTITLE23=I Couldn't Be Me Without You
TTITLE24=Music City U.S.A.
EXTD=
EXTT0=
EXTT1=
EXTT2=
EXTT3=
EXTT4=
EXTT5=
EXTT6=
EXTT7=
EXTT8=
EXTT9=
EXTT10=
EXTT11=
EXTT12=
EXTT13=
EXTT14=
EXTT15=
EXTT16=
EXTT17=
EXTT18=
EXTT19=
EXTT20=
EXTT21=
EXTT22=
EXTT23=
EXTT24=
PLAYORDER=
